<mxfile host="app.diagrams.net" modified="2024-02-23T03:08:18.803Z" agent="Mozilla/5.0 (Macintosh; Intel Mac OS X 10_15_7) AppleWebKit/537.36 (KHTML, like Gecko) Chrome/121.0.0.0 Safari/537.36" version="23.1.6" etag="Vs-nFC1ke2UAkq9tXksH" type="github">
  <diagram name="Page-1" id="nq4Jv1GP7mMzobnQs2Fk">
    <mxGraphModel>
      <root>
        <mxCell id="0" />
        <mxCell id="1" parent="0" />
      </root>
    </mxGraphModel>
  </diagram>
</mxfile>
